<svg width="72" height="72" viewBox="0 0 72 72" fill="none" xmlns="http://www.w3.org/2000/svg">
<rect width="72" height="72" rx="20" fill="#F8EFE8"/>
<path d="M36 46C30.4771 46 26 41.5228 26 36C26 30.4771 30.4771 26 36 26C41.5228 26 46 30.4771 46 36C46 41.5228 41.5228 46 36 46ZM33.71 43.6674C32.7474 41.6259 32.1573 39.3742 32.0273 37H28.0619C28.458 40.1765 30.7164 42.7747 33.71 43.6674ZM34.0307 37C34.1811 39.4388 34.8778 41.7297 36 43.752C37.1222 41.7297 37.8189 39.4388 37.9693 37H34.0307ZM43.9381 37H39.9727C39.8427 39.3742 39.2526 41.6259 38.29 43.6674C41.2836 42.7747 43.542 40.1765 43.9381 37ZM28.0619 35H32.0273C32.1573 32.6258 32.7474 30.3741 33.71 28.3326C30.7164 29.2253 28.458 31.8235 28.0619 35ZM34.0307 35H37.9693C37.8189 32.5612 37.1222 30.2703 36 28.248C34.8778 30.2703 34.1811 32.5612 34.0307 35ZM38.29 28.3326C39.2526 30.3741 39.8427 32.6258 39.9727 35H43.9381C43.542 31.8235 41.2836 29.2253 38.29 28.3326Z" fill="#4F270A"/>
</svg>
