<svg width="72" height="72" viewBox="0 0 72 72" fill="none" xmlns="http://www.w3.org/2000/svg">
<rect width="72" height="72" rx="20" fill="#E6EFFE"/>
<path d="M31 27V25H33V27H39V25H41V27H45C45.5523 27 46 27.4477 46 28V33H44V29H41V31H39V29H33V31H31V29H28V43H34V45H27C26.4477 45 26 44.5523 26 44V28C26 27.4477 26.4477 27 27 27H31ZM41 36C38.7909 36 37 37.7909 37 40C37 42.2091 38.7909 44 41 44C43.2091 44 45 42.2091 45 40C45 37.7909 43.2091 36 41 36ZM35 40C35 36.6863 37.6863 34 41 34C44.3137 34 47 36.6863 47 40C47 43.3137 44.3137 46 41 46C37.6863 46 35 43.3137 35 40ZM40 37V40.4142L42.2929 42.7071L43.7071 41.2929L42 39.5858V37H40Z" fill="#022865"/>
</svg>
