<svg width="72" height="72" viewBox="0 0 72 72" fill="none" xmlns="http://www.w3.org/2000/svg">
<rect width="72" height="72" rx="20" fill="#FAE2B2"/>
<path d="M44.0078 31V29H28.0078V43H44.0078V41H36.0078C35.4555 41 35.0078 40.5523 35.0078 40V32C35.0078 31.4477 35.4555 31 36.0078 31H44.0078ZM27.0078 27H45.0078C45.5601 27 46.0078 27.4477 46.0078 28V44C46.0078 44.5523 45.5601 45 45.0078 45H27.0078C26.4555 45 26.0078 44.5523 26.0078 44V28C26.0078 27.4477 26.4555 27 27.0078 27ZM37.0078 33V39H44.0078V33H37.0078ZM39.0078 35H42.0078V37H39.0078V35Z" fill="#654402"/>
</svg>
